<?xml version="1.0" encoding="UTF-8"?>
<svg id="_Слой_2" data-name="Слой 2" xmlns="http://www.w3.org/2000/svg" viewBox="0 0 526.54 351.59">
  <defs>
    <style>
      .cls-1 {
        letter-spacing: -.01em;
      }

      .cls-2 {
        font-family: AktivGrotesk-Bold, 'Aktiv Grotesk';
        font-size: 87px;
        font-weight: 700;
      }

      .cls-3 {
        letter-spacing: 0em;
      }

      .cls-4 {
        font-family: AktivGrotesk-Light, 'Aktiv Grotesk';
        font-size: 84px;
        font-weight: 300;
      }

      .cls-5 {
        letter-spacing: -.09em;
      }

      .cls-6 {
        fill: #1d1d1b;
      }
    </style>
  </defs>
  <g id="_Слой_2-2" data-name="Слой 2">
    <g>
      <g>
        <path class="cls-6" d="M112.75,203.24c-4.85-2.59-23.94-11.53-30.24-28.8-1.92-5.27-6.2-17.02-.96-28.8,6.72-15.11,24.27-19.4,27.36-20.16,16.54-4.05,25.68,1.56,33.5-4.28,9.05-6.77,.77-17.55,13.54-29.32,1.79-1.65,4.65-4.23,9.12-5.76,9.55-3.26,18.79,2.72,25.68,4.92,8.27,2.64,20.09,2.63,38.16-3,67.84-19.52,135.68-39.04,203.52-58.56,3.58-1.2,7.93-2.61,12-3.36,8.14-1.5,10.58,13.15,19.68,16.68,3.69,1.43,14.46-.18,17.88-4.5-1.44-6.08-4.64-9.97-8.1-15.12-4.04-3.81-7.78-8.52-11.82-12.32,0,0-3.11-2.93-3.11-2.94,0,0-.73-1.48-.73-1.48-4,1.28-8.84,2.56-12.84,3.84-78.33,24.95-156.28,47.45-233.76,67.68-2.96,.35-6.91,.39-8.64-1.92-2.36-3.15,1.32-8.16,3.36-16.32,.62-2.47,4.02-16.49-.96-24-4.85-7.31-17.13-5.51-32.82-1.11-13.17,7.67-32.24,15.42-49.86,25.47-9.72,3.6-20.84,3.16-32.04,3.48-10.8-2.76-21.29-9.78-39.84-9.12-8.99,.32-27.35,.98-39.36,12.96C-6.17,85.01,.92,116.08,4.27,130.76c2.29,10.06,14.9,65.34,59.04,76.32,19.26,4.79,41.15-.4,49.44-3.84Z"/>
        <circle class="cls-6" cx="418.47" cy="13.24" r="4.61"/>
        <circle class="cls-6" cx="432.27" cy="8.99" r="4.61"/>
        <circle class="cls-6" cx="446.07" cy="4.61" r="4.61"/>
      </g>
      <text class="cls-2" transform="translate(113.98 197.42)"><tspan x="0" y="0">GUI</tspan><tspan class="cls-5" x="149.12" y="0">T</tspan><tspan class="cls-3" x="194.79" y="0">AR</tspan></text>
      <text class="cls-4" transform="translate(179.5 266.54)"><tspan class="cls-1" x="0" y="0">S</tspan><tspan x="52.67" y="0">CHOOL</tspan></text>
      <text/>
      <text/>
    </g>
  </g>
</svg>